<svg class="animated" id="freepik_stories-helpful-sign" xmlns="http://www.w3.org/2000/svg" viewBox="0 0 500 500" version="1.1" xmlns:xlink="http://www.w3.org/1999/xlink" xmlns:svgjs="http://svgjs.com/svgjs"><style>svg#freepik_stories-helpful-sign:not(.animated) .animable {opacity: 0;}svg#freepik_stories-helpful-sign.animated #freepik--Graphics--inject-35 {animation: 6s Infinite  linear floating;animation-delay: 0s;}svg#freepik_stories-helpful-sign.animated #freepik--paper-planes--inject-35 {animation: 1s 1 forwards linear slideLeft;animation-delay: 0s;}            @keyframes floating {                0% {                    opacity: 1;                    transform: translateY(0px);                }                50% {                    transform: translateY(-10px);                }                100% {                    opacity: 1;                    transform: translateY(0px);                }            }                    @keyframes slideLeft {                0% {                    opacity: 0;                    transform: translateX(-30px);                }                100% {                    opacity: 1;                    transform: translateX(0);                }            }        .animator-hidden { display: none; }</style><g id="freepik--Floor--inject-35" class="animable animator-active animator-hidden" style="transform-origin: 254.922px 364.84px;"><path id="freepik--floor--inject-35" d="M105.13,278.34c-82.72,47.76-82.72,125.2,0,173s216.86,47.76,299.58,0,82.73-125.2,0-173S187.85,230.58,105.13,278.34Z" style="fill: rgb(250, 250, 250); transform-origin: 254.922px 364.84px;" class="animable"></path></g><g id="freepik--Plants--inject-35" class="animable animator-hidden" style="transform-origin: 280.067px 338.609px;"><g id="freepik--plants--inject-35" class="animable" style="transform-origin: 433.676px 330.569px;"><path d="M443.59,310.57c-2.39,4.17-5.95,9.93-9.31,16.16-5,9.31-9.55,19.68-8.86,27.34l0,.77h0l-.59,11.76-.08,1.62-2.78-1.58-6.83-3.88a101.75,101.75,0,0,1-.17-38.52c2.69-15.38,13.45-32.27,22.53-33.19C445.91,290.19,449.53,300.14,443.59,310.57Z" style="fill: #FFFFFF; transform-origin: 429.868px 329.609px;" id="elbt1rgahvtag" class="animable"></path><g id="elygdqgxdpghh"><path d="M443.59,310.57c-2.39,4.17-5.95,9.93-9.31,16.16-5,9.31-9.55,19.68-8.86,27.34l0,.77h0l-.59,11.76-.08,1.62-2.78-1.58-6.83-3.88a101.75,101.75,0,0,1-.17-38.52c2.69-15.38,13.45-32.27,22.53-33.19C445.91,290.19,449.53,300.14,443.59,310.57Z" style="fill: rgb(255, 255, 255); opacity: 0.25; transform-origin: 429.868px 329.609px;" class="animable" id="elkdfq4oi6vea"></path></g><path d="M418.87,362.21a.54.54,0,0,0,.33-.57c-3.55-28.47,8.17-54.72,20.09-64.22a.56.56,0,0,0,.09-.77.54.54,0,0,0-.77-.08c-12.11,9.65-24.09,36.34-20.49,65.21a.54.54,0,0,0,.61.47Z" style="fill: rgb(255, 255, 255); transform-origin: 428.482px 329.35px;" id="ela67wasdkfm" class="animable"></path><path d="M454,328.59c-.94,5.52-11,12-17.59,20.94-6,8.07-8.58,16.26-8.37,20.61h0l-3.34-1.9-2.78-1.58c-1.53-20.19,4.53-33.38,12.35-39.92a22.44,22.44,0,0,1,6-3.63C449.05,319.58,455.14,322,454,328.59Z" style="fill: #FFFFFF; transform-origin: 437.91px 345.815px;" id="elc4mrtlijlw" class="animable"></path><g id="el1smfvjsno83"><path d="M454,328.59c-.94,5.52-11,12-17.59,20.94-6,8.07-8.58,16.26-8.37,20.61h0l-3.34-1.9-2.78-1.58c-1.53-20.19,4.53-33.38,12.35-39.92a22.44,22.44,0,0,1,6-3.63C449.05,319.58,455.14,322,454,328.59Z" style="fill: rgb(255, 255, 255); opacity: 0.6; transform-origin: 437.91px 345.815px;" class="animable" id="elqcnv28317m"></path></g><path d="M424.92,366.57a.54.54,0,0,0,.33-.49c.34-23.14,13.6-35.74,20.56-39.18a.55.55,0,0,0,.25-.73.53.53,0,0,0-.73-.24c-7.7,3.79-20.82,16.52-21.17,40.13a.55.55,0,0,0,.54.55A.54.54,0,0,0,424.92,366.57Z" style="fill: rgb(255, 255, 255); transform-origin: 435.137px 346.239px;" id="el5u07ntrvwo" class="animable"></path></g><g id="freepik--plants--inject-35" class="animable" style="transform-origin: 127.818px 344.06px;"><path d="M117.25,322.71c2.54,4.45,6.34,10.59,9.91,17.22,5.35,9.93,10.18,21,9.45,29.13l0,.82h0l.62,12.53.09,1.73,3-1.69,7.27-4.13a108.31,108.31,0,0,0,.18-41c-2.86-16.39-14.33-34.38-24-35.36C114.77,301,110.92,311.6,117.25,322.71Z" style="fill: #FFFFFF; transform-origin: 131.882px 343.02px;" id="elymv6y1n2jxm" class="animable"></path><g id="eld3u67862ms4"><path d="M117.25,322.71c2.54,4.45,6.34,10.59,9.91,17.22,5.35,9.93,10.18,21,9.45,29.13l0,.82h0l.62,12.53.09,1.73,3-1.69,7.27-4.13a108.31,108.31,0,0,0,.18-41c-2.86-16.39-14.33-34.38-24-35.36C114.77,301,110.92,311.6,117.25,322.71Z" style="fill: rgb(255, 255, 255); opacity: 0.25; transform-origin: 131.882px 343.02px;" class="animable" id="elsaj2e2g8kg"></path></g><path d="M143.58,377.74a.6.6,0,0,1-.35-.61c3.79-30.34-8.7-58.31-21.4-68.43a.57.57,0,0,1-.09-.81.56.56,0,0,1,.81-.09c12.91,10.28,25.67,38.72,21.83,69.47a.58.58,0,0,1-.64.51Z" style="fill: rgb(255, 255, 255); transform-origin: 133.343px 342.725px;" id="elswv5xyjpdkd" class="animable"></path><path d="M106.14,341.91c1,5.88,11.67,12.8,18.73,22.31,6.37,8.6,9.15,17.32,8.92,22h0l3.56-2,3-1.69C142,361,135.5,346.9,127.16,339.93a23.71,23.71,0,0,0-6.36-3.86C111.43,332.32,104.94,334.86,106.14,341.91Z" style="fill: #FFFFFF; transform-origin: 123.302px 360.281px;" id="elto006enuwg" class="animable"></path><g id="elkoml5i1lgbd"><path d="M106.14,341.91c1,5.88,11.67,12.8,18.73,22.31,6.37,8.6,9.15,17.32,8.92,22h0l3.56-2,3-1.69C142,361,135.5,346.9,127.16,339.93a23.71,23.71,0,0,0-6.36-3.86C111.43,332.32,104.94,334.86,106.14,341.91Z" style="fill: rgb(255, 255, 255); opacity: 0.6; transform-origin: 123.302px 360.281px;" class="animable" id="elb8ezzu6x5rk"></path></g><path d="M137.13,382.38a.58.58,0,0,1-.34-.53c-.37-24.64-14.49-38.07-21.91-41.73a.58.58,0,0,1-.27-.78.57.57,0,0,1,.78-.26c8.2,4,22.18,17.6,22.56,42.76a.6.6,0,0,1-.58.59A.69.69,0,0,1,137.13,382.38Z" style="fill: rgb(255, 255, 255); transform-origin: 126.25px 360.722px;" id="elxtvvk12roed" class="animable"></path></g></g><g id="freepik--Shadow--inject-35" class="animable animator-hidden" style="transform-origin: 266.51px 411.96px;"><polygon id="freepik--shadow--inject-35" points="256.15 469.44 228.79 453.64 400.51 354.48 428.09 370.15 256.15 469.44" style="fill: rgb(235, 235, 235); transform-origin: 328.44px 411.96px;" class="animable"></polygon><ellipse id="freepik--shadow--inject-35" cx="185.17" cy="416.52" rx="80.24" ry="46.33" style="fill: rgb(235, 235, 235); transform-origin: 185.17px 416.52px;" class="animable"></ellipse></g><g id="freepik--Graphics--inject-35" class="animable" style="transform-origin: 254.308px 198.044px;"><g id="freepik--Like--inject-35" class="animable" style="transform-origin: 457.188px 247.532px;"><path d="M468.25,244.94l-10.79,19.61,6.49,3.57,10.79-19.61Zm-3-10.17c.15-1.19,2.89-5.26,3.32-6s-3.11-3.11-5.83-.92a13,13,0,0,0-4.87,7.47l-9-5a3.17,3.17,0,0,0-4.24,1.35,3.48,3.48,0,0,0,0,3.44,2.87,2.87,0,0,0-3.2,1.54,3.23,3.23,0,0,0,.69,3.93,3.94,3.94,0,0,0-1.76,1.82c-.53,1-.18,3.33,1.09,4a6.38,6.38,0,0,0-1.52,1.83,3.56,3.56,0,0,0,1.76,4.64l14.91,8.2,9.26-16.85S465.06,236,465.21,234.77Z" style="fill: rgb(224, 224, 224); transform-origin: 457.188px 247.532px;" id="elyapo4ltea9" class="animable"></path></g><g id="freepik--like--inject-35" class="animable" style="transform-origin: 102.027px 236.638px;"><path d="M83.45,235.61l7.07,22.55L98,255.81l-7.08-22.54Zm10.1-2.56,6.08,19.38,17.14-5.38a3.76,3.76,0,0,0,2.79-4.44,6.51,6.51,0,0,0-1.19-2.21c1.46-.46,2.32-2.82,2-3.94a4.17,4.17,0,0,0-1.45-2.26,3.41,3.41,0,0,0,1.54-3.92,3,3,0,0,0-3-2.26,3.65,3.65,0,0,0,.73-3.55,3.33,3.33,0,0,0-4.1-2.29l-10.36,3.26a13.75,13.75,0,0,0-3.48-8.75c-2.37-2.83-6.52-1.16-6.23-.26s2.27,5.68,2.18,6.94S93.55,233.05,93.55,233.05Z" style="fill: rgb(224, 224, 224); transform-origin: 102.027px 236.638px;" id="elqhondkz38rk" class="animable"></path></g><path id="freepik--Star--inject-35" d="M39.63,182.06l8.48-1.93L54.5,186a1.29,1.29,0,0,0,2.16-.83l.79-8.66L65,172.28A1.29,1.29,0,0,0,64.9,170l-8-3.42L55.2,158a1.29,1.29,0,0,0-2.23-.6L47.24,164l-8.63-1a1.28,1.28,0,0,0-1.26,1.93l4.45,7.47-3.63,7.91A1.29,1.29,0,0,0,39.63,182.06Z" style="fill: rgb(224, 224, 224); transform-origin: 51.4027px 171.654px;" class="animable"></path><path id="freepik--star--inject-35" d="M66,143.61l-2.23-4.51-5-.73h0a1.09,1.09,0,0,1-.9-.76,1.14,1.14,0,0,1,.28-1.15L61.73,133l-.85-5a1.11,1.11,0,0,1,.45-1.09,1.08,1.08,0,0,1,1.17-.09L67,129.15l4.46-2.34a1.12,1.12,0,0,1,1.17.09A1.11,1.11,0,0,1,73,128l-.85,5,3.6,3.51a1.12,1.12,0,0,1-.62,1.91l-5,.72L68,143.61a1.12,1.12,0,0,1-1,.63,1.33,1.33,0,0,1-.34-.05A1.14,1.14,0,0,1,66,143.61Zm5.79-16.18L67,129.94l-4.78-2.51a.42.42,0,0,0-.61.44l.91,5.33L58.61,137a.43.43,0,0,0-.11.44.46.46,0,0,0,.34.29l5.35.77,2.38,4.85a.42.42,0,0,0,.38.23.44.44,0,0,0,.39-.23l2.39-4.84,5.34-.78a.42.42,0,0,0,.23-.72l-3.86-3.77.91-5.32a.41.41,0,0,0-.17-.42.27.27,0,0,0-.12-.06A.45.45,0,0,0,71.74,127.43Z" style="fill: rgb(224, 224, 224); transform-origin: 66.9523px 135.463px;" class="animable"></path><path id="freepik--star--inject-35" d="M40.36,268.53l-1.11-4.91-4.67-1.87h0a1.09,1.09,0,0,1-.7-.95,1.11,1.11,0,0,1,.54-1.05l4.33-2.57.33-5a1.12,1.12,0,0,1,1.86-.77l3.78,3.32,4.88-1.24A1.12,1.12,0,0,1,50.9,255l-2,4.62,2.68,4.26a1.13,1.13,0,0,1,0,1.19,1.15,1.15,0,0,1-1.06.53l-5-.47L42.32,269a1.13,1.13,0,0,1-1.13.37.85.85,0,0,1-.31-.13A1.11,1.11,0,0,1,40.36,268.53Zm9.41-14.38-5.23,1.32-4.06-3.56a.42.42,0,0,0-.44-.07.41.41,0,0,0-.26.36l-.36,5.39-4.64,2.76a.42.42,0,0,0-.21.4.44.44,0,0,0,.27.36l5,2L41,268.38a.43.43,0,0,0,.32.32.42.42,0,0,0,.42-.15l3.46-4.14,5.37.49a.4.4,0,0,0,.4-.2.41.41,0,0,0,0-.45l-2.88-4.56,2.14-5a.43.43,0,0,0-.07-.45l-.11-.09A.43.43,0,0,0,49.77,254.15Z" style="fill: rgb(224, 224, 224); transform-origin: 42.8126px 260.265px;" class="animable"></path><path id="freepik--star--inject-35" d="M446.57,148.61l-1.11-4.91-4.67-1.87h0a1.13,1.13,0,0,1-.7-1,1.12,1.12,0,0,1,.55-1l4.32-2.57.34-5a1.12,1.12,0,0,1,.69-1,1.1,1.1,0,0,1,1.16.2l3.79,3.31,4.88-1.23a1.09,1.09,0,0,1,1.12.36,1.11,1.11,0,0,1,.18,1.17l-2,4.62L457.8,144a1.12,1.12,0,0,1-1,1.71l-5-.46-3.22,3.87a1.1,1.1,0,0,1-1.12.37,1.11,1.11,0,0,1-.83-.84ZM456,134.22l-5.24,1.33L446.68,132a.41.41,0,0,0-.44-.08.43.43,0,0,0-.26.37l-.36,5.39L441,140.43a.39.39,0,0,0-.2.39.42.42,0,0,0,.26.36l5,2,1.19,5.26a.39.39,0,0,0,.31.32.42.42,0,0,0,.43-.14l3.45-4.15,5.38.5a.43.43,0,0,0,.4-.2.43.43,0,0,0,0-.45l-2.88-4.57,2.13-5a.4.4,0,0,0-.07-.44.28.28,0,0,0-.1-.09A.45.45,0,0,0,456,134.22Z" style="fill: rgb(224, 224, 224); transform-origin: 449.029px 140.35px;" class="animable"></path></g><g id="freepik--paper-planes--inject-35" class="animable animator-hidden" style="transform-origin: 253.78px 241.99px;"><g id="freepik--paper-plane--inject-35" class="animable" style="transform-origin: 62.905px 362.455px;"><polygon points="98.31 434.71 50.94 409.5 31.61 417.47 98.31 434.71" style="fill: #FFFFFF; transform-origin: 64.96px 422.105px;" id="elmsrqxgs4878" class="animable"></polygon><g id="elgqaph6aoon"><g style="opacity: 0.4; transform-origin: 64.96px 422.105px;" class="animable" id="el0152z1nwvyu7"><polygon points="98.31 434.71 50.94 409.5 31.61 417.47 98.31 434.71" style="fill: rgb(255, 255, 255); transform-origin: 64.96px 422.105px;" id="el8jbutaez6x3" class="animable"></polygon></g></g><polygon points="98.31 434.71 56.76 405.38 64.6 394.7 98.31 434.71" style="fill: #FFFFFF; transform-origin: 77.535px 414.705px;" id="elcu7v1u5tfsi" class="animable"></polygon><g id="elib7iri2drh"><g style="opacity: 0.4; transform-origin: 77.535px 414.705px;" class="animable" id="eld66rcj6m3lo"><polygon points="98.31 434.71 56.76 405.38 64.6 394.7 98.31 434.71" style="fill: rgb(255, 255, 255); transform-origin: 77.535px 414.705px;" id="elxgqoug2a8uo" class="animable"></polygon></g></g><polygon points="56.76 405.38 57.37 412.92 98.31 434.71 56.76 405.38" style="fill: #FFFFFF; transform-origin: 77.535px 420.045px;" id="el2i62at2lkiz" class="animable"></polygon><path d="M50.86,403.76a.49.49,0,0,1-.32-.12c-.35-.3-.73-.66-1.12-1.06a.5.5,0,0,1,0-.71.49.49,0,0,1,.7,0c.38.38.73.72,1.06,1a.5.5,0,0,1-.33.88Z" style="fill: rgb(224, 224, 224); transform-origin: 50.3136px 402.742px;" id="el84zam1ocjry" class="animable"></path><path d="M46.62,398.91a.49.49,0,0,1-.4-.2c-.57-.77-1.14-1.59-1.72-2.46a.51.51,0,0,1,.14-.7.5.5,0,0,1,.69.14c.57.86,1.14,1.67,1.69,2.43a.49.49,0,0,1-.11.7A.5.5,0,0,1,46.62,398.91Zm-4.32-6.65a.5.5,0,0,1-.43-.25c-.49-.84-1-1.71-1.46-2.61a.5.5,0,1,1,.88-.48c.48.9,1,1.76,1.45,2.58a.52.52,0,0,1-.19.69A.55.55,0,0,1,42.3,392.26Zm-3.7-7a.48.48,0,0,1-.45-.28c-.43-.89-.85-1.79-1.26-2.72a.5.5,0,1,1,.91-.4c.41.91.83,1.81,1.25,2.68a.5.5,0,0,1-.24.67A.54.54,0,0,1,38.6,385.24ZM35.42,378a.5.5,0,0,1-.46-.32c-.36-.92-.72-1.85-1.06-2.8a.5.5,0,0,1,.94-.34c.34.94.69,1.87,1,2.77a.51.51,0,0,1-.28.65A.41.41,0,0,1,35.42,378Zm-2.63-7.49a.51.51,0,0,1-.48-.35c-.29-.94-.57-1.9-.85-2.87a.5.5,0,0,1,1-.27c.27,1,.55,1.91.84,2.84a.51.51,0,0,1-.33.63A.39.39,0,0,1,32.79,370.48Zm-2.06-7.66a.5.5,0,0,1-.49-.39c-.22-1-.43-1.94-.62-2.92a.5.5,0,0,1,.4-.59.49.49,0,0,1,.58.39c.19,1,.4,1.94.61,2.9a.5.5,0,0,1-.37.6ZM29.29,355a.5.5,0,0,1-.49-.43c-.05-.34-.1-.67-.14-1-.08-.66-.16-1.31-.23-2a.49.49,0,0,1,.44-.55.5.5,0,0,1,.55.44c.07.64.15,1.29.23,1.94.05.34.09.67.14,1a.51.51,0,0,1-.43.57Zm-.85-7.89a.5.5,0,0,1-.5-.46c-.08-1-.15-2-.21-3a.5.5,0,0,1,.47-.53.48.48,0,0,1,.53.47c.05,1,.13,2,.21,3a.5.5,0,0,1-.46.54ZM28,339.21a.51.51,0,0,1-.5-.49c0-1,0-2,0-3a.54.54,0,0,1,.5-.51.51.51,0,0,1,.5.5c0,1,0,2,0,3a.5.5,0,0,1-.49.51Zm0-7.94h0a.49.49,0,0,1-.48-.51c0-1,.08-2,.13-3a.49.49,0,0,1,.53-.47.51.51,0,0,1,.47.53c-.06,1-.1,2-.13,3A.5.5,0,0,1,28,331.27Zm.5-7.91h-.05a.5.5,0,0,1-.45-.54c.1-1,.21-2,.32-3a.5.5,0,0,1,1,.12c-.12,1-.22,2-.32,2.94A.5.5,0,0,1,28.54,323.36Zm1-7.87h-.08a.49.49,0,0,1-.41-.57q.24-1.5.51-2.94a.49.49,0,0,1,.58-.4.5.5,0,0,1,.4.58c-.18,1-.35,1.93-.51,2.92A.49.49,0,0,1,29.55,315.49Zm1.53-7.78-.11,0a.5.5,0,0,1-.38-.6c.23-1,.47-1.95.72-2.9a.5.5,0,1,1,1,.25c-.25.94-.49,1.9-.71,2.88A.51.51,0,0,1,31.08,307.71Zm2.07-7.66L33,300a.49.49,0,0,1-.32-.63c.3-1,.61-1.92.92-2.84a.51.51,0,0,1,.64-.31.5.5,0,0,1,.31.63c-.31.91-.62,1.85-.92,2.82A.5.5,0,0,1,33.15,300.05Z" style="fill: rgb(224, 224, 224); transform-origin: 37.3103px 347.552px;" id="el29g7auyak7t" class="animable"></path><path d="M35.8,292.55a.57.57,0,0,1-.18,0,.5.5,0,0,1-.28-.65l.56-1.39a.5.5,0,0,1,.93.38c-.19.45-.38.91-.56,1.38A.51.51,0,0,1,35.8,292.55Z" style="fill: rgb(224, 224, 224); transform-origin: 36.0855px 291.378px;" id="elvx736745mq" class="animable"></path></g><g id="freepik--paper-plane--inject-35" class="animable" style="transform-origin: 428.97px 117.875px;"><polygon points="425.8 68.05 377.88 49.27 413.7 78.11 425.8 68.05" style="fill: #FFFFFF; transform-origin: 401.84px 63.69px;" id="el95uwpaxwdh9" class="animable"></polygon><g id="el4vxyok5i1fq"><polygon points="425.8 68.05 377.88 49.27 413.7 78.11 425.8 68.05" style="fill: rgb(255, 255, 255); opacity: 0.15; transform-origin: 401.84px 63.69px;" class="animable" id="el13fvblsnvvu"></polygon></g><polygon points="377.88 49.27 430.04 61.79 442.13 51.72 377.88 49.27" style="fill: #FFFFFF; transform-origin: 410.005px 55.53px;" id="el1cz52me7g6j" class="animable"></polygon><g id="el32y8mnh7tw5"><polygon points="377.88 49.27 430.04 61.79 442.13 51.72 377.88 49.27" style="fill: rgb(255, 255, 255); opacity: 0.15; transform-origin: 410.005px 55.53px;" class="animable" id="el9o38fq0nf2"></polygon></g><polygon points="430.04 61.79 429.09 74.85 425.8 68.05 377.88 49.27 430.04 61.79" style="fill: #FFFFFF; transform-origin: 403.96px 62.06px;" id="el1lmvv63ll7e" class="animable"></polygon><g id="el86wm3n27kbe"><polygon points="430.04 61.79 429.09 74.85 425.8 68.05 377.88 49.27 430.04 61.79" style="opacity: 0.2; transform-origin: 403.96px 62.06px;" class="animable" id="elzs4xurtjrlr"></polygon></g><polygon points="429.09 74.85 421.76 71.4 425.8 68.05 429.09 74.85" style="fill: #FFFFFF; transform-origin: 425.425px 71.45px;" id="eluxd80v5tdb" class="animable"></polygon><g id="elnaqkns161w"><polygon points="425.8 68.05 421.76 71.4 422.93 71.95 425.8 68.05" style="opacity: 0.2; transform-origin: 423.78px 70px;" class="animable" id="el0nij4cenxlq"></polygon></g><path d="M435.75,69.33a.49.49,0,0,1-.2,0c-.49-.21-.95-.4-1.37-.56a.5.5,0,0,1,.37-.93l1.4.58a.49.49,0,0,1,.26.65A.51.51,0,0,1,435.75,69.33Z" style="fill: rgb(224, 224, 224); transform-origin: 435.058px 68.5724px;" id="el2x7r2v07j22" class="animable"></path><path d="M472.82,180.6a.43.43,0,0,1-.19,0,.51.51,0,0,1-.27-.66c.37-.84.74-1.77,1.13-2.78a.5.5,0,1,1,.93.35c-.39,1-.77,2-1.14,2.83A.51.51,0,0,1,472.82,180.6Zm2.77-7.57a.4.4,0,0,1-.15,0,.5.5,0,0,1-.33-.62c.29-.92.57-1.88.84-2.89a.5.5,0,0,1,.61-.35.49.49,0,0,1,.35.61c-.27,1-.55,2-.84,2.92A.51.51,0,0,1,475.59,173Zm2-7.81h-.1a.5.5,0,0,1-.39-.59c.2-1,.39-1.94.57-3a.48.48,0,0,1,.57-.41.5.5,0,0,1,.41.58c-.18,1-.37,2-.57,3A.5.5,0,0,1,477.61,165.22Zm1.3-7.95h-.06a.5.5,0,0,1-.44-.55c.12-1,.22-2,.31-3a.5.5,0,1,1,1,.08c-.08,1-.19,2-.3,3A.51.51,0,0,1,478.91,157.27Zm.6-8h0a.5.5,0,0,1-.48-.52c0-1,.05-2,.05-3a.5.5,0,1,1,1,0h0c0,1,0,2-.05,3A.5.5,0,0,1,479.51,149.23Zm-.08-8.06a.5.5,0,0,1-.5-.48c-.06-1-.12-2-.21-3a.51.51,0,0,1,.46-.54.52.52,0,0,1,.54.46c.08,1,.15,2,.2,3a.5.5,0,0,1-.47.53Zm-.76-8a.5.5,0,0,1-.49-.43q-.19-1.47-.45-3a.51.51,0,0,1,.42-.58.5.5,0,0,1,.57.41c.17,1,.32,2,.45,3a.5.5,0,0,1-.43.56Zm-1.38-7.94a.5.5,0,0,1-.49-.39c-.21-1-.44-2-.68-2.93a.51.51,0,0,1,.37-.61.49.49,0,0,1,.6.37c.25,1,.47,2,.68,3a.49.49,0,0,1-.38.59Zm-2-7.81a.49.49,0,0,1-.48-.36c-.28-1-.58-1.91-.89-2.87a.5.5,0,0,1,.95-.31c.31,1,.61,1.94.9,2.9a.51.51,0,0,1-.34.62A.36.36,0,0,1,475.3,117.39Zm-2.55-7.64a.5.5,0,0,1-.47-.33c-.35-.93-.71-1.87-1.09-2.81a.5.5,0,0,1,.28-.65.5.5,0,0,1,.65.28c.38,1,.75,1.89,1.1,2.83a.5.5,0,0,1-.3.64A.35.35,0,0,1,472.75,109.75Zm-3.07-7.46a.49.49,0,0,1-.45-.29c-.41-.89-.85-1.8-1.31-2.7a.5.5,0,1,1,.88-.46c.47.91.92,1.84,1.34,2.74a.51.51,0,0,1-.25.67A.52.52,0,0,1,469.68,102.29Zm-3.8-7.1a.52.52,0,0,1-.43-.24c-.52-.85-1.08-1.7-1.63-2.51a.51.51,0,0,1,.12-.7.52.52,0,0,1,.7.13c.57.83,1.13,1.69,1.66,2.55a.51.51,0,0,1-.42.77Zm-4.67-6.57a.46.46,0,0,1-.38-.19c-.62-.76-1.28-1.53-1.95-2.28a.51.51,0,0,1,.05-.71.49.49,0,0,1,.7,0c.68.76,1.34,1.55,2,2.32a.51.51,0,0,1-.07.71A.54.54,0,0,1,461.21,88.62Zm-5.44-5.94a.47.47,0,0,1-.35-.14c-.72-.69-1.46-1.37-2.21-2a.51.51,0,0,1,0-.71.5.5,0,0,1,.7,0c.76.67,1.52,1.36,2.24,2.06a.5.5,0,0,1-.34.86Zm-6.13-5.23a.47.47,0,0,1-.3-.1c-.8-.6-1.62-1.19-2.44-1.76a.52.52,0,0,1-.13-.7.51.51,0,0,1,.7-.12c.83.57,1.67,1.17,2.47,1.78a.5.5,0,0,1-.3.9ZM442.94,73a.48.48,0,0,1-.26-.07c-.86-.51-1.75-1-2.62-1.46a.5.5,0,1,1,.47-.88c.88.47,1.78,1,2.66,1.48a.5.5,0,0,1,.18.68A.51.51,0,0,1,442.94,73Z" style="fill: rgb(224, 224, 224); transform-origin: 459.912px 125.562px;" id="eleuf4jog71p" class="animable"></path><path d="M469.91,186.48a.56.56,0,0,1-.27-.08.51.51,0,0,1-.16-.69s.28-.44.72-1.27a.5.5,0,1,1,.88.47c-.47.88-.75,1.33-.75,1.33A.5.5,0,0,1,469.91,186.48Z" style="fill: rgb(224, 224, 224); transform-origin: 470.282px 185.312px;" id="el71xy22r35d3" class="animable"></path></g></g><g id="freepik--Sign--inject-35" class="animable animator-hidden" style="transform-origin: 334.565px 285.903px;"><path d="M291.85,188.42a2.46,2.46,0,0,0-1.46-2,7.75,7.75,0,0,0-7,0,2.46,2.46,0,0,0-1.45,2V438.19a2.48,2.48,0,0,0,1.45,2,7.75,7.75,0,0,0,7,0,2.47,2.47,0,0,0,1.46-2Z" style="fill: rgb(235, 235, 235); transform-origin: 286.895px 313.305px;" id="el19n0rz7ho0t" class="animable"></path><g id="elqilp2qcibw"><path d="M291.85,188.42a2.46,2.46,0,0,0-1.46-2,7.75,7.75,0,0,0-7,0,2.46,2.46,0,0,0-1.45,2V438.19a2.48,2.48,0,0,0,1.45,2,7.75,7.75,0,0,0,7,0,2.47,2.47,0,0,0,1.46-2Z" style="opacity: 0.1; transform-origin: 286.895px 313.305px;" class="animable" id="el5nk1b4ofacm"></path></g><path d="M283.37,186.4a2.14,2.14,0,0,0,0,4,7.75,7.75,0,0,0,7,0,2.13,2.13,0,0,0,0-4A7.75,7.75,0,0,0,283.37,186.4Z" style="fill: rgb(224, 224, 224); transform-origin: 286.879px 188.4px;" id="elw5zfis9k3ve" class="animable"></path><g id="el8srtwzr955v"><path d="M281.92,284.49l9.93-5.73v-9.89l-9.93,5.74Z" style="opacity: 0.1; transform-origin: 286.885px 276.68px;" class="animable" id="el1kyv3q4snd1"></path></g><path d="M384.75,134.7a2.47,2.47,0,0,0-1.46-2,7.75,7.75,0,0,0-7,0,2.48,2.48,0,0,0-1.45,2V384.47a2.48,2.48,0,0,0,1.45,2,7.75,7.75,0,0,0,7,0,2.47,2.47,0,0,0,1.46-2Z" style="fill: rgb(224, 224, 224); transform-origin: 379.795px 259.585px;" id="el20u9n0ig7cl" class="animable"></path><g id="elv74g34ivkeb"><path d="M384.75,134.7a2.47,2.47,0,0,0-1.46-2,7.75,7.75,0,0,0-7,0,2.48,2.48,0,0,0-1.45,2V384.47a2.48,2.48,0,0,0,1.45,2,7.75,7.75,0,0,0,7,0,2.47,2.47,0,0,0,1.46-2Z" style="opacity: 0.1; transform-origin: 379.795px 259.585px;" class="animable" id="el6dagkkvb5rp"></path></g><path d="M376.27,132.67a2.14,2.14,0,0,0,0,4.05,7.75,7.75,0,0,0,7,0,2.13,2.13,0,0,0,0-4.05A7.75,7.75,0,0,0,376.27,132.67Z" style="fill: rgb(224, 224, 224); transform-origin: 379.781px 134.695px;" id="elyquhts9j3" class="animable"></path><g id="elo7uap8ko66c"><path d="M374.82,230.76l9.93-5.73v-9.88l-9.93,5.73Z" style="opacity: 0.1; transform-origin: 379.785px 222.955px;" class="animable" id="elkp1dl29vy5l"></path></g><g id="elte0jfu15jz"><path d="M281.92,374.93l9.93-5.73v-9.88l-9.93,5.73Z" style="opacity: 0.1; transform-origin: 286.885px 367.125px;" class="animable" id="elnawfo0l96w"></path></g><g id="elq4cchafr6v"><path d="M374.82,321.21l9.93-5.73v-9.89l-9.93,5.73Z" style="opacity: 0.1; transform-origin: 379.785px 313.4px;" class="animable" id="el258cjcar7qv"></path></g><polygon points="421.23 199.3 254.16 295.77 254.16 230.93 421.23 134.45 421.23 199.3" style="fill: #FFFFFF; transform-origin: 337.695px 215.11px;" id="eliii412x795" class="animable"></polygon><g id="elfdllvq7bw8q"><polygon points="254.16 295.77 256.31 232.53 421.23 134.45 254.16 230.93 254.16 295.77" style="fill: rgb(255, 255, 255); opacity: 0.2; transform-origin: 337.695px 215.11px;" class="animable" id="elr29ulu72dr9"></polygon></g><polygon points="247.9 292.14 254.16 295.77 254.16 230.93 247.9 227.14 247.9 292.14" style="fill: #FFFFFF; transform-origin: 251.03px 261.455px;" id="eldalhpstmgu" class="animable"></polygon><g id="el5mr3e2rykvb"><polygon points="247.9 292.14 254.16 295.77 254.16 230.93 247.9 227.14 247.9 292.14" style="opacity: 0.1; transform-origin: 251.03px 261.455px;" class="animable" id="elzuooo5dbg0r"></polygon></g><polygon points="254.16 230.93 247.9 227.14 414.77 130.78 421.23 134.45 254.16 230.93" style="fill: #FFFFFF; transform-origin: 334.565px 180.855px;" id="elcnkk5p687ft" class="animable"></polygon><polygon points="254.73 311.32 260.99 314.87 260.99 379.71 254.73 376.15 254.73 311.32" style="fill: #FFFFFF; transform-origin: 257.86px 345.515px;" id="elj9ke77nn94" class="animable"></polygon><g id="elymfq6kh1xns"><polygon points="254.73 311.32 260.99 314.87 260.99 379.71 254.73 376.15 254.73 311.32" style="opacity: 0.1; transform-origin: 257.86px 345.515px;" class="animable" id="elvuecp26jpy"></polygon></g><polygon points="260.99 314.87 260.99 379.71 416.68 289.77 416.68 224.92 260.99 314.87" style="fill: #FFFFFF; transform-origin: 338.835px 302.315px;" id="elc54ssw4ve5a" class="animable"></polygon><g id="elf4h81ecot6l"><polygon points="393.88 238.08 263.3 316.59 260.99 379.71 260.99 314.87 393.88 238.08" style="fill: rgb(255, 255, 255); opacity: 0.2; transform-origin: 327.435px 308.895px;" class="animable" id="ellyphi11fvp"></polygon></g><polyline points="260.99 314.87 254.73 311.32 410.48 221.34 416.68 224.92" style="fill: #FFFFFF; transform-origin: 335.705px 268.105px;" id="elxb1qdjro2mi" class="animable"></polyline><polygon points="254.16 230.93 247.9 227.14 414.77 130.78 421.23 134.45 254.16 230.93" style="fill: #FFFFFF; transform-origin: 334.565px 180.855px;" id="eltzfjoa86rwf" class="animable"></polygon><g id="elb2ajhlwhagv"><polygon points="254.16 230.93 247.9 227.14 414.77 130.78 421.23 134.45 254.16 230.93" style="opacity: 0.3; transform-origin: 334.565px 180.855px;" class="animable" id="el0dxrgxycd6t"></polygon></g><polyline points="260.99 314.87 254.73 311.32 410.48 221.34 416.68 224.92" style="fill: #FFFFFF; transform-origin: 335.705px 268.105px;" id="elcytubzpoues" class="animable"></polyline><g id="elponvxo2uzjk"><polyline points="260.99 314.87 254.73 311.32 410.48 221.34 416.68 224.92" style="opacity: 0.3; transform-origin: 335.705px 268.105px;" class="animable" id="elu6gp66h9vi"></polyline></g></g><g id="freepik--Texts--inject-35" class="animable animator-hidden" style="transform-origin: 339.295px 255.225px;"><path d="M321,206.17l-5.85,3.38v37l14.29-8.26v-6.61L321,236.56Zm-34.71,34.52-8.3,4.8V231l-5.85,3.38v37L278,268V252.15l8.3-4.79v15.85l5.82-3.36v-37l-5.82,3.36ZM302.39,238l7.16-4.14.68-6.89-7.84,4.53v-7.93l9.43-5.45v-6.61l-15.29,8.83v37l15.79-9.11v-6.61l-9.93,5.73ZM398,192.07V161.69l-5.85,3.38v37l14.3-8.26V187.2Zm-15.75.74c0,5.52-1.42,9.18-3.94,10.64s-4.4.51-4.4-5.82v-22L368.11,179v22.52c0,7.76,2.52,13.35,9.76,9.17,7.55-4.36,10.25-12.91,10.25-20.72V167.41l-5.85,3.38Zm-43.51,3c-1.85,1.07-6.67,4-7.38,4.37v37l5.85-3.38V219.63l1.07-.61c5.89-3.4,9.54-9.45,9.54-17.21C347.84,194.76,344.79,192.32,338.76,195.8Zm0,17-1.49.86V202.75a12,12,0,0,1,1.32-.87c2.23-1.24,3.15.85,3.15,3.91C341.7,209.4,340.32,211.89,338.72,212.82Zm12,13.2,5.86-3.38V207.17l7.2-4.15.71-6.92-7.91,4.57V192.2l9.44-5.45V180.2L350.68,189Z" style="fill: rgb(55, 71, 79); transform-origin: 339.295px 216.535px;" id="el0alloc6wo90i" class="animable"></path><polygon points="320.98 206.17 315.13 209.55 315.13 246.55 329.43 238.29 329.43 231.68 320.98 236.56 320.98 206.17" style="fill: rgb(38, 50, 56); transform-origin: 322.28px 226.36px;" id="elu52kk1umww" class="animable"></polygon><polygon points="286.27 240.69 277.97 245.49 277.97 231.01 272.12 234.39 272.12 271.38 277.97 268 277.97 252.15 286.27 247.36 286.27 263.21 292.09 259.85 292.09 222.85 286.27 226.21 286.27 240.69" style="fill: rgb(38, 50, 56); transform-origin: 282.105px 247.115px;" id="el2rey2o5dko" class="animable"></polygon><polygon points="302.38 237.95 309.55 233.81 310.23 226.92 302.38 231.44 302.38 223.52 311.82 218.07 311.82 211.46 296.53 220.29 296.53 257.28 312.32 248.17 312.32 241.56 302.38 247.29 302.38 237.95" style="fill: rgb(38, 50, 56); transform-origin: 304.425px 234.37px;" id="elldeiit9iwzf" class="animable"></polygon><polygon points="398.02 192.07 398.02 161.69 392.17 165.07 392.17 202.07 406.47 193.81 406.47 187.2 398.02 192.07" style="fill: rgb(38, 50, 56); transform-origin: 399.32px 181.88px;" id="el717egkj78a5" class="animable"></polygon><path d="M382.27,192.81c0,5.52-1.42,9.18-3.94,10.64s-4.4.51-4.4-5.82v-22L368.11,179v22.52c0,7.76,2.52,13.35,9.76,9.17,7.55-4.36,10.25-12.91,10.25-20.72V167.41l-5.85,3.38Z" style="fill: rgb(38, 50, 56); transform-origin: 378.115px 189.763px;" id="eltc4yof895nd" class="animable"></path><path d="M338.76,195.8c-1.84,1.06-6.68,4-7.39,4.37v37l5.86-3.37V219.63l1.07-.61c5.89-3.4,9.54-9.45,9.54-17.21C347.84,194.76,344.79,192.32,338.76,195.8Zm0,17-1.49.85V202.74a14,14,0,0,1,1.32-.86c2.23-1.24,3.15.85,3.15,3.91C341.7,209.4,340.32,211.89,338.72,212.82Z" style="fill: rgb(38, 50, 56); transform-origin: 339.605px 215.7px;" id="elhbm5vkay32" class="animable"></path><polygon points="350.68 226.02 356.54 222.64 356.54 207.17 363.74 203.02 364.45 196.1 356.54 200.67 356.54 192.2 365.98 186.75 365.98 180.19 350.68 189.02 350.68 226.02" style="fill: rgb(38, 50, 56); transform-origin: 358.33px 203.105px;" id="elpfo6orqkn9p" class="animable"></polygon><polygon points="361.59 197.75 356.54 200.67 356.54 197.74 354 199.21 354 190.74 363.44 185.29 363.44 181.66 350.68 189.02 350.68 223.09 354 221.17 354 205.71 361.2 201.55 361.59 197.75" style="fill: rgb(69, 90, 100); transform-origin: 357.06px 202.375px;" id="elyul8ihjhivd" class="animable"></polygon><polygon points="395.49 190.61 395.49 163.16 392.17 165.07 392.17 199.14 403.93 192.35 403.93 188.66 398.02 192.07 398.02 189.15 395.49 190.61" style="fill: rgb(69, 90, 100); transform-origin: 398.05px 181.15px;" id="eltr7lqdpvmz" class="animable"></polygon><path d="M385.58,188.46V168.88l-3.31,1.91v22c0,5.52-1.42,9.18-3.94,10.64-1.6.92-2.95.86-3.72-1-1.89.47-3.22-1-3.22-6.32V177.07L368.11,179v22.52c0,3.87.63,7.21,2.16,9.06a8,8,0,0,0,5.06-1.35C382.89,204.83,385.58,196.27,385.58,188.46Z" style="fill: rgb(69, 90, 100); transform-origin: 376.845px 189.741px;" id="elww71xlsftp" class="animable"></path><polygon points="296.53 254.35 309.78 246.7 309.78 243.02 302.38 247.29 302.38 244.36 299.85 245.83 299.85 236.48 307.01 232.34 307.39 228.56 302.38 231.44 302.38 228.52 299.85 229.98 299.85 222.06 309.29 216.61 309.29 212.93 296.53 220.29 296.53 254.35" style="fill: rgb(69, 90, 100); transform-origin: 303.155px 233.64px;" id="el2hbv0ck8g2k" class="animable"></polygon><polygon points="283.74 248.82 286.27 247.36 286.27 260.28 289.56 258.38 289.56 224.32 286.27 226.21 286.27 240.69 277.97 245.49 277.97 242.56 275.43 244.02 275.43 232.47 272.12 234.39 272.12 268.45 275.43 266.53 275.43 250.69 283.74 245.9 283.74 248.82" style="fill: rgb(69, 90, 100); transform-origin: 280.84px 246.385px;" id="el6u9cx74diks" class="animable"></polygon><polygon points="320.98 233.63 318.44 235.09 318.44 207.64 315.13 209.55 315.13 243.62 326.89 236.83 326.89 233.15 320.98 236.56 320.98 233.63" style="fill: rgb(69, 90, 100); transform-origin: 321.01px 225.63px;" id="eli3m1lu6apq9" class="animable"></polygon><path d="M345.31,200.35c0-2.77-.48-4.81-1.41-6.08a8.92,8.92,0,0,0-5.14,1.53c-1.85,1.07-6.67,4-7.38,4.37v34.06l3.32-1.91V218.17l1.06-.62C341.65,214.15,345.31,208.11,345.31,200.35Zm-6.59,12.47-1.49.86v-3.21a4.39,4.39,0,0,1-1,.88l-1.49.86V201.28a11.69,11.69,0,0,1,1.31-.87c1.51-.83,2.41-.15,2.85,1.32,2-.88,2.84,1.15,2.84,4.06C341.7,209.4,340.32,211.89,338.72,212.82Z" style="fill: rgb(69, 90, 100); transform-origin: 338.345px 214.249px;" id="el72txlgncbel" class="animable"></path><polygon points="403.93 192.35 406.47 193.81 406.47 187.2 403.93 188.66 403.93 192.35" style="fill: rgb(55, 71, 79); transform-origin: 405.2px 190.505px;" id="el08p393hrhyi" class="animable"></polygon><polygon points="398.02 192.07 395.49 190.61 395.49 163.16 398.02 161.69 398.02 192.07" style="fill: rgb(55, 71, 79); transform-origin: 396.755px 176.88px;" id="elxddk262rmb" class="animable"></polygon><path d="M371.39,177.07v19.09c0,3,.45,5.41,1.7,6.16l2.59,1.51h0c-1.07-.59-1.75-2.43-1.75-6.19v-22Z" style="fill: rgb(55, 71, 79); transform-origin: 373.535px 189.735px;" id="elhupfkr00f5o" class="animable"></path><polygon points="354 205.71 356.54 207.17 356.54 222.64 354 221.17 354 205.71" style="fill: rgb(55, 71, 79); transform-origin: 355.27px 214.175px;" id="elj4wp7v7ez2" class="animable"></polygon><polygon points="361.2 201.55 363.74 203.02 364.45 196.1 361.59 197.75 361.2 201.55" style="fill: rgb(55, 71, 79); transform-origin: 362.825px 199.56px;" id="elzytvwaq4el" class="animable"></polygon><polygon points="356.54 200.67 354 199.21 354 190.74 356.54 192.2 356.54 200.67" style="fill: rgb(55, 71, 79); transform-origin: 355.27px 195.705px;" id="els7sfyilr4fs" class="animable"></polygon><polygon points="365.98 186.75 363.44 185.29 363.44 181.66 365.98 180.19 365.98 186.75" style="fill: rgb(55, 71, 79); transform-origin: 364.71px 183.47px;" id="el4lhxbxti8c" class="animable"></polygon><polygon points="334.7 218.17 337.23 219.63 337.23 233.79 334.7 232.32 334.7 218.17" style="fill: rgb(55, 71, 79); transform-origin: 335.965px 225.98px;" id="el0t47y3ptk6wf" class="animable"></polygon><polygon points="334.7 212.21 337.23 213.68 337.23 202.74 334.7 201.28 334.7 212.21" style="fill: rgb(55, 71, 79); transform-origin: 335.965px 207.48px;" id="eld1z8octrlca" class="animable"></polygon><path d="M340.21,201.6a2,2,0,0,0-1.66.28,14,14,0,0,0-1.32.86l-2.53-1.46c.41-.3.85-.59,1.31-.87a1.82,1.82,0,0,1,1.78-.22Z" style="fill: rgb(38, 50, 56); transform-origin: 337.455px 201.396px;" id="el7bhame6piar" class="animable"></path><polygon points="318.44 235.09 320.98 236.56 320.98 206.17 318.44 207.64 318.44 235.09" style="fill: rgb(55, 71, 79); transform-origin: 319.71px 221.365px;" id="el4tzayy255q7" class="animable"></polygon><polygon points="326.89 236.83 329.43 238.29 329.43 231.68 326.89 233.15 326.89 236.83" style="fill: rgb(55, 71, 79); transform-origin: 328.16px 234.985px;" id="elij2llfg8f5o" class="animable"></polygon><polygon points="309.29 216.61 311.82 218.07 311.82 211.46 309.29 212.93 309.29 216.61" style="fill: rgb(55, 71, 79); transform-origin: 310.555px 214.765px;" id="el2t7dvggg8xk" class="animable"></polygon><polygon points="299.85 222.06 302.38 223.52 302.38 231.44 299.85 229.98 299.85 222.06" style="fill: rgb(55, 71, 79); transform-origin: 301.115px 226.75px;" id="elt64voqxr1" class="animable"></polygon><polygon points="307.39 228.56 307.01 232.34 309.55 233.81 310.23 226.92 307.39 228.56" style="fill: rgb(55, 71, 79); transform-origin: 308.62px 230.365px;" id="el29wgh7aya9x" class="animable"></polygon><polygon points="299.85 236.48 302.38 237.95 302.38 247.29 299.85 245.83 299.85 236.48" style="fill: rgb(55, 71, 79); transform-origin: 301.115px 241.885px;" id="eluj22xfypbvd" class="animable"></polygon><polygon points="309.78 243.02 309.78 246.7 312.32 248.17 312.32 241.56 309.78 243.02" style="fill: rgb(55, 71, 79); transform-origin: 311.05px 244.865px;" id="elxv21rwxumb" class="animable"></polygon><polygon points="289.56 258.38 292.09 259.85 292.09 222.85 289.56 224.32 289.56 258.38" style="fill: rgb(55, 71, 79); transform-origin: 290.825px 241.35px;" id="elu07kyzihi1" class="animable"></polygon><polygon points="275.43 244.02 277.97 245.49 277.97 231.01 275.43 232.47 275.43 244.02" style="fill: rgb(55, 71, 79); transform-origin: 276.7px 238.25px;" id="elypnl7z9itx" class="animable"></polygon><polygon points="275.43 250.69 277.97 252.15 277.97 268 275.43 266.53 275.43 250.69" style="fill: rgb(55, 71, 79); transform-origin: 276.7px 259.345px;" id="el347lgpa33xe" class="animable"></polygon><polygon points="283.74 245.9 286.27 247.36 277.97 252.15 275.43 250.69 283.74 245.9" style="fill: rgb(38, 50, 56); transform-origin: 280.85px 249.025px;" id="elzx8bz77d72" class="animable"></polygon><path d="M313.26,296.44l-.88,8.37-6.59,3.8v36.13l-7,4V312.63l-6.8,3.93v-7.87Z" style="fill: rgb(55, 71, 79); transform-origin: 302.625px 322.59px;" id="el8044ibtg1j3" class="animable"></path><path d="M316,294.88l7-4v44l-7,4Z" style="fill: rgb(55, 71, 79); transform-origin: 319.5px 314.88px;" id="elmg81o75lr39" class="animable"></path><path d="M328.16,287.83c.85-.48,6.59-3.93,8.78-5.19,7.18-4.15,10.81-1.24,10.81,7.14,0,9.23-4.35,16.42-11.36,20.46l-1.26.73V327.8l-7,4Zm7,16.06,1.77-1c1.9-1.1,3.55-4.06,3.55-8.35,0-3.64-1.1-6.13-3.76-4.66a13.71,13.71,0,0,0-1.56,1Z" style="fill: rgb(55, 71, 79); transform-origin: 337.94px 306.284px;" id="elx95ayo35h78" class="animable"></path><path d="M369.27,267.74l-2.44,8.56c-1.31-.35-4-1.28-6.13,0a5.78,5.78,0,0,0-2.91,5c.13,2.79,1.44,3.66,5,3.93,4.51.31,6.71,2.17,6.71,8.79,0,8-3.89,16.61-10,20.16a11.56,11.56,0,0,1-10,1.12l2.28-9c.8.38,4.64,1.81,6.87.51s3.42-3.72,3.42-6.84-1.47-3.51-4-3.63c-4.9-.29-7.77-2.21-7.77-9.22,0-7.74,4.47-15.19,9.5-18.09C363.83,266.66,367.37,266.82,369.27,267.74Z" style="fill: rgb(55, 71, 79); transform-origin: 359.5px 291.535px;" id="el0qh8eb8iq5n" class="animable"></path><path d="M381.43,295.81c0,3.31-1.31,6.67-3.76,8.08s-3.71-.45-3.71-3.51c0-3.38,1.35-6.76,3.8-8.17S381.43,292.49,381.43,295.81Zm-6.63-34.9,7.35-4.24-1.23,30.4-6.12,3.53Z" style="fill: rgb(55, 71, 79); transform-origin: 378.055px 280.52px;" id="elvp2kcc13q8" class="animable"></path><polygon points="374.8 260.91 374.8 287.67 378.39 285.6 379.49 258.2 374.8 260.91" style="fill: rgb(69, 90, 100); transform-origin: 377.145px 272.935px;" id="elfsvwvflbrb" class="animable"></polygon><path d="M378.55,291.85a4.16,4.16,0,0,0-.79.36c-2.45,1.41-3.8,4.79-3.8,8.17a7,7,0,0,0,.37,2.4,3.89,3.89,0,0,0,.81-.35c2.45-1.42,3.75-4.77,3.75-8.09A8,8,0,0,0,378.55,291.85Z" style="fill: rgb(69, 90, 100); transform-origin: 376.425px 297.315px;" id="elqcfhs3u7a5b" class="animable"></path><path d="M345.21,288.32c0-3.48-.63-6-1.87-7.47-1.67-.28-3.8.28-6.4,1.79-2.19,1.26-7.93,4.71-8.78,5.19V328.9l4.43-2.56V309.51l1.27-.73C340.86,304.73,345.21,297.55,345.21,288.32Zm-8.31,14.55-1.77,1v-3.05a4.84,4.84,0,0,1-.77.56l-1.77,1v-13a13.49,13.49,0,0,1,1.56-1c1.65-.91,2.7-.3,3.26,1.16,2.13-.67,3,1.67,3,5C340.45,298.81,338.8,301.77,336.9,302.87Z" style="fill: rgb(69, 90, 100); transform-origin: 336.685px 304.84px;" id="elmnjarwkaz6" class="animable"></path><path d="M356.94,312.67c6.17-3.56,10.05-12.17,10.05-20.16,0-3.49-.62-5.65-1.85-7a11.27,11.27,0,0,0-2.32-.37,8.36,8.36,0,0,1-3.45-.8c-.42-.24-2.33-1.31-2.79-1.62a3.44,3.44,0,0,1-1.32-3,5.8,5.8,0,0,1,2.91-5c2.15-1.24,4.81-.31,6.12,0l2.21-7.71a12.64,12.64,0,0,0-6.72,1.88c-5,2.9-9.5,10.35-9.5,18.09,0,3.61.77,5.86,2.17,7.25a13.2,13.2,0,0,0,3.06.51,5.76,5.76,0,0,1,2.81.62c.34.22,2.18,1.19,2.66,1.54.67.5,1,1.38,1,2.93,0,3.12-1.05,5.48-3.42,6.84s-6.07-.13-6.87-.51l-2.07,8.13A12,12,0,0,0,356.94,312.67Z" style="fill: rgb(69, 90, 100); transform-origin: 358.305px 290.68px;" id="elxe0hernydx" class="animable"></path><polygon points="310.4 298.09 292.03 308.69 292.03 313.63 296.29 311.17 296.29 314.1 298.83 312.63 298.83 345.83 303.25 343.28 303.25 307.15 309.84 303.35 310.4 298.09" style="fill: rgb(69, 90, 100); transform-origin: 301.215px 321.96px;" id="elxvlc9dws1yp" class="animable"></polygon><polygon points="320.39 333.38 320.39 292.32 315.96 294.88 315.96 335.94 320.39 333.38" style="fill: rgb(69, 90, 100); transform-origin: 318.175px 314.13px;" id="elt9nwbwzqvi" class="animable"></polygon><polygon points="296.29 311.17 298.83 312.63 292.03 316.56 292.03 313.63 296.29 311.17" style="fill: rgb(38, 50, 56); transform-origin: 295.43px 313.865px;" id="elxa4boowy9u" class="animable"></polygon><polygon points="312.38 304.81 309.84 303.35 303.25 307.15 305.79 308.61 312.38 304.81" style="fill: rgb(38, 50, 56); transform-origin: 307.815px 305.98px;" id="elhlezj7usmm" class="animable"></polygon><polygon points="303.25 343.28 305.79 344.74 298.83 348.76 298.83 345.83 303.25 343.28" style="fill: rgb(38, 50, 56); transform-origin: 302.31px 346.02px;" id="elrfr0ac41xlk" class="animable"></polygon><polygon points="320.39 333.38 322.93 334.85 315.96 338.87 315.96 335.94 320.39 333.38" style="fill: rgb(38, 50, 56); transform-origin: 319.445px 336.125px;" id="el94ts973htgo" class="animable"></polygon><polygon points="332.59 326.34 335.13 327.8 328.16 331.83 328.16 328.9 332.59 326.34" style="fill: rgb(38, 50, 56); transform-origin: 331.645px 329.085px;" id="el7xvpmk98bt8" class="animable"></polygon><path d="M347.75,289.79c0,9.22-4.35,16.4-11.36,20.45l-1.26.73-2.53-1.46,1.26-.73c7-4,11.36-11.24,11.36-20.46,0-3.47-.65-6-1.88-7.48C346.26,281.33,347.75,284.44,347.75,289.79Z" style="fill: rgb(38, 50, 56); transform-origin: 340.175px 295.905px;" id="eli0b2n6bvzn" class="animable"></path><path d="M332.59,289.43l2.54,1.47c1.26-.87,2.37-1.78,3.63-1.32l-2.5-1.45C335.29,287.59,334,288.43,332.59,289.43Z" style="fill: rgb(38, 50, 56); transform-origin: 335.675px 289.43px;" id="elwysk8exctxo" class="animable"></path><polygon points="332.59 289.43 335.13 290.9 335.13 303.89 332.59 302.43 332.59 289.43" style="fill: rgb(55, 71, 79); transform-origin: 333.86px 296.66px;" id="elhss29fj56o9" class="animable"></polygon><path d="M364.29,274.83l2.54,1.47,2.44-8.56a6.87,6.87,0,0,0-2.77-.62Z" style="fill: rgb(38, 50, 56); transform-origin: 366.78px 271.71px;" id="elh1ses1cmp3" class="animable"></path><polygon points="378.39 285.6 380.92 287.07 374.8 290.6 374.8 287.67 378.39 285.6" style="fill: rgb(38, 50, 56); transform-origin: 377.86px 288.1px;" id="eljqwbukbvlkr" class="animable"></polygon></g><g id="freepik--Character--inject-35" class="animable animator-hidden" style="transform-origin: 159.433px 242.525px;"><g id="freepik--character--inject-35" class="animable" style="transform-origin: 159.433px 242.525px;"><g id="freepik--Bottom--inject-35" class="animable" style="transform-origin: 181.756px 312.738px;"><path d="M229.35,391.64c.5,2.81,1.44,6.08,2.22,11.85s-.47,6,3.19,20.44c2.2,8.68,1.76,12.12-3.59,19.38-5.72,7.77-11.63,6.14-15.42-2.56-3.25-7.44-3-10.88-3-18.56s0-9.91-.32-16c-.27-5.37.2-9-.1-13.15Z" style="fill: rgb(55, 71, 79); transform-origin: 224.167px 419.973px;" id="elwlpe1wg5lac" class="animable"></path><path d="M230.94,412.68c-1-7.45-1.19-15.15-1.54-20.18-.78-11.27,1.67-33.52.19-50.47l-28.53-3.11c.91,6.61,8.58,36.54,11.31,54.59,0,0,.94,24.48,2.44,35.27a2.06,2.06,0,0,0,2.88,1.62,18.83,18.83,0,0,1,12.93-.74,2.07,2.07,0,0,0,2.78-2C233.36,423.73,231.7,418.27,230.94,412.68Z" style="fill: rgb(255, 189, 167); transform-origin: 217.23px 384.749px;" id="elhnro4zc9o8b" class="animable"></path><path d="M147,337.84c.41,23.45.45,44.21-.31,50.3s-1.08,8.15-2.58,12.43-4,10-6.34,12.75c0,0-6.6,7.23-5.1,7.95s15.55,2,21.81,0,6.86-7.32,8.87-17.08,3.67-24,3.67-24a6.55,6.55,0,0,1-.67-1.64c-.87-2.8,1.59-10.12,2.15-17.2Z" style="fill: rgb(255, 189, 167); transform-origin: 150.474px 380.091px;" id="elen01ys9ymvc" class="animable"></path><path d="M173.42,394.69c-.38,2.27-2.3,4.87-3.13,8.42a63.4,63.4,0,0,0-1.67,12.32l-.24,5.8-1.58-.07s.31-7.33.45-10.55-.09-5.58-1.61-6C165.64,404.62,165.81,394.37,173.42,394.69Z" style="fill: rgb(38, 50, 56); transform-origin: 169.53px 407.956px;" id="ely2zh252ine" class="animable"></path><path d="M166.72,378.93c1.05,2.67,4.51,6.41,6,8.95a9.66,9.66,0,0,1,1.26,4.39,4.59,4.59,0,0,1-1.35,3.46,54.15,54.15,0,0,0-4.81,5.47c-1.88,2.6-5.41,8.66-6.35,12.92s-1.47,8-5.1,10.17c-2.82,1.68-14.46,4.13-20.36,4.58-8.06.62-10.2-3.24-7.22-6.37s8-8.51,8.94-9.18a14.59,14.59,0,0,1,7.51.95c4.54,1.88,6,4.49,10.73,2.06,4.26-2.2,5.87-10.16,5.36-21.58C160.76,381.79,166.72,378.93,166.72,378.93Z" style="fill: rgb(55, 71, 79); transform-origin: 150.746px 403.933px;" id="el2pmc02077e6" class="animable"></path><path d="M208.44,177.17c.56,2.94,1.19,5.69,2.26,7.15,6.54,8.93,13.22,19.75,14.52,36.48a735.94,735.94,0,0,1,1.4,79.33c.32,3.56,3.14,12.18,3.78,32.53.51,16.21-.24,41.43-.24,41.43s-11.58,5.78-21.72,2c-4.17-15.44-11.24-52.58-15.38-70.24-4.37-18.63-8.85-40.84-8.85-40.84l-6.57,32.68a94.62,94.62,0,0,1,0,21.07c-1.14,10.85-9.46,49.12-9.46,49.12S155.32,372,146.56,366c0,0-1.45-54-1.61-65.92s1.23-82.76,8.33-114a67.73,67.73,0,0,0,.38-7.25C162.25,185.86,197.13,184.92,208.44,177.17Z" style="fill: rgb(55, 71, 79); transform-origin: 187.758px 277.271px;" id="el0v6gr8rgijlg" class="animable"></path><path d="M230.32,368.48c-4.38,4.09-17.9,5.26-23.24,2.48l1.72,8.41s3.52,2.34,11.21,1.59,10.12-3.85,10.12-3.85Z" style="fill: rgb(69, 90, 100); transform-origin: 218.7px 374.794px;" id="eleyby7013ke8" class="animable"></path><path d="M169.41,362.54c-4.56,1.58-18.21,1-23.25-2.08l.31,7.23s2.84,2.67,10.54,3.39,11-1.47,11-1.47Z" style="fill: rgb(69, 90, 100); transform-origin: 157.785px 365.843px;" id="elivlzsfd1l4n" class="animable"></path><path d="M184.21,265l-5.54-39.88a25.25,25.25,0,0,1-20.3-9.46s-.2,10,16.27,14.36l6.49,36.75-3.49,30.91Z" style="fill: rgb(38, 50, 56); transform-origin: 171.29px 256.67px;" id="elazqyejk9fjr" class="animable"></path><path d="M153.37,185.55s8.35,6.18,27.85,5.12S210.1,183.32,210,183h0a27.6,27.6,0,0,1-1.37-5.07c-.07-.29-.12-.55-.15-.74-11.31,7.75-46.19,8.69-54.78,1.71,0,0,0,4.66-.29,6.67Z" style="fill: rgb(38, 50, 56); transform-origin: 181.685px 183.991px;" id="elgs9u16edfj" class="animable"></path></g><g id="freepik--Top--inject-35" class="animable" style="transform-origin: 159.433px 131.841px;"><g id="freepik--Arm--inject-35" class="animable" style="transform-origin: 131.196px 130.811px;"><path d="M167.64,114.94s-10.56,1.75-18.38,9.38c-9.61,9.37-21.81,20-21.81,20a97.3,97.3,0,0,1-7-15.8c-3.59-11-2.48-14.55-.71-18.43,1-2.31,2.39-5.28,3-6.91a21.17,21.17,0,0,1,3.91-6.56c.88-.91-1.14-2.35-4.61-.24-2.58,1.56-4.36,4.3-5.64,5.63-.67-1.44-1.41-3.85-2.92-6.94-.67-1.38-1.26-2.79-2-4.12a6.37,6.37,0,0,0-1.23-1.55,3,3,0,0,0-1.66-.78,2.92,2.92,0,0,0-2.51,1,13.68,13.68,0,0,1-1,1.29c-1.05,1-2.88.62-3.85,1.65-.58.59-.71,1.51-1.28,2.1s-1.31.71-1.84,1.21c-.94.89-.82,2.47-1.64,3.46a8,8,0,0,0-1.58,2.11c-.53,1.67.26,4.16.56,5.17a41.68,41.68,0,0,0,3.43,8.38c2.33,4,3.18,4.4,5.38,16.84,2,11.29,4.93,27,9.13,35.08s12.23,5.37,19.09.23c8.59-6.42,29.89-22,29.89-22l5.31-30.64" style="fill: rgb(255, 189, 167); transform-origin: 131.196px 130.315px;" id="elfvmstvydroe" class="animable"></path><path d="M113.47,99.57c1.3,2.15,1.86,3.84-.47,6.36-1.38,1.5-4.53,4.66-3.87,7.25a5.26,5.26,0,0,1-1.34-2.85c-.07-1.5-.33-2.14-1.05-1.7a4,4,0,0,1-2.14.42s.47,1.13-1.49,1.75-5.57-2.11-7.14-7.7c0,0,3.42,6.76,5.86,6.22s1.63-5.73.2-7.9c0,0,3.6,6.23,5.64,5.34s1.17-4.77-.93-7.85c0,0,3.16,5.12,5,4.41C113.87,102.45,113.52,100.52,113.47,99.57Z" style="fill: rgb(240, 153, 122); transform-origin: 105.283px 106.045px;" id="elhgk2h610x6o" class="animable"></path><path d="M167.64,114.45c-5.52,1.22-11.41,3-20.18,10.91s-19.92,18.11-19.92,18.11l-5.85-12.27s-1.58,2.82-8.34,4.58-8.75.78-8.75.78,2.63,15.84,5.87,25.05,7,12.41,12,11.14,11.38-5.86,17.88-10.4S163,145.69,163,145.69Z" style="fill: #FFFFFF; transform-origin: 136.12px 143.733px;" id="elfpmt2w3z3ek" class="animable"></path><g id="elwse3t3cfp99"><path d="M167.64,114.45c-5.52,1.22-11.41,3-20.18,10.91s-19.92,18.11-19.92,18.11l-5.85-12.27s-1.58,2.82-8.34,4.58-8.75.78-8.75.78,2.63,15.84,5.87,25.05,7,12.41,12,11.14,11.38-5.86,17.88-10.4S163,145.69,163,145.69Z" style="opacity: 0.2; transform-origin: 136.12px 143.733px;" class="animable" id="el5v2rqhabizy"></path></g></g><g id="freepik--Megaphone--inject-35" class="animable" style="transform-origin: 105.005px 71.6245px;"><g id="freepik--megaphone--inject-35" class="animable" style="transform-origin: 105.005px 71.6245px;"><path d="M138.85,94a11.42,11.42,0,1,1,2-16A11.42,11.42,0,0,1,138.85,94Z" style="fill: rgb(69, 90, 100); transform-origin: 131.824px 84.9968px;" id="el6ysixlonvop" class="animable"></path><path d="M134.21,90.36l-13.77-5.61a11.42,11.42,0,0,0,22.26,3.77C141,91.11,138.64,92.16,134.21,90.36Z" style="fill: rgb(55, 71, 79); transform-origin: 131.569px 90.5506px;" id="elav3neftxsu5" class="animable"></path><path d="M124.25,88,123,78.93a117.58,117.58,0,0,1-24.16,22.8l.5,3.63C105.29,103.11,115.34,95.83,124.25,88Z" style="fill: rgb(55, 71, 79); transform-origin: 111.545px 92.145px;" id="elp74sy0w31y" class="animable"></path><path d="M130.24,95.62l-5.43,0-9.92,7.6a15.94,15.94,0,0,1-15.55,2.17h0c6.89-2.93,16.73-10.31,24.91-17.33Z" style="fill: rgb(69, 90, 100); transform-origin: 114.79px 97.2826px;" id="elmivocyc3qts" class="animable"></path><path d="M112.51,96l0,.26a1.54,1.54,0,0,0,.84,1.08l1.94.79a.41.41,0,0,1,.11.77l-.21.17a1.48,1.48,0,0,1-1.34.18l-2-.8a1.47,1.47,0,0,1-.83-1.07l0-.26a1.54,1.54,0,0,1,.53-1.25l.21-.17A.42.42,0,0,1,112.51,96Z" style="fill: #FFFFFF; transform-origin: 113.322px 97.4361px;" id="eloumg0vnwlqn" class="animable"></path><path d="M109.1,98.28a2.51,2.51,0,0,0,0,.27,1.49,1.49,0,0,0,.83,1.07l2,.8a.41.41,0,0,1,.1.77l-.21.16a1.49,1.49,0,0,1-1.34.19l-2-.8a1.49,1.49,0,0,1-.82-1.08l0-.25a1.52,1.52,0,0,1,.52-1.26l.21-.16C108.72,97.72,109,97.85,109.1,98.28Z" style="fill: #FFFFFF; transform-origin: 109.958px 99.7349px;" id="elage5ut5vylr" class="animable"></path><path d="M105.69,100.57l0,.27a1.49,1.49,0,0,0,.83,1.07l2,.79a.42.42,0,0,1,.11.78l-.21.16a1.51,1.51,0,0,1-1.35.19l-2-.81a1.45,1.45,0,0,1-.82-1.07l0-.25a1.55,1.55,0,0,1,.52-1.26l.22-.17C105.31,100,105.63,100.14,105.69,100.57Z" style="fill: #FFFFFF; transform-origin: 106.549px 102.021px;" id="elwg8e9f5il1i" class="animable"></path><path d="M128.14,69h0c1.63.66,2.87,2.31,3.39,4.8.05.26.1.53.14.81s.08.66.1,1a14.1,14.1,0,0,1,0,1.72,18.64,18.64,0,0,1-.45,3.26,22.32,22.32,0,0,1-3.74,8.23,15.58,15.58,0,0,1-3,3.09c-2.29,1.78-4.53,2.26-6.31,1.6L124.45,96v0a7.41,7.41,0,0,0,7.14-1.25,15.52,15.52,0,0,0,2.84-2.93,22.5,22.5,0,0,0,3.86-8.39,19.64,19.64,0,0,0,.45-3.26,14.08,14.08,0,0,0,0-1.72c0-.34-.05-.68-.1-1a7.61,7.61,0,0,0-4.23-5.89h0l-.17-.07L134,71.4Z" style="fill: #FFFFFF; transform-origin: 128.518px 82.7093px;" id="elly87jbib8y" class="animable"></path><g id="elbzj6md78ayl"><g style="opacity: 0.1; transform-origin: 126.345px 92.6193px;" class="animable" id="elrtdrzu8052"><path d="M124.45,96v0a7.41,7.41,0,0,0,7.14-1.25,15.52,15.52,0,0,0,2.84-2.93l-6.86-3a15.58,15.58,0,0,1-3,3.09c-2.29,1.78-4.53,2.26-6.31,1.6Z" id="el7iqpcj5mfy4" class="animable" style="transform-origin: 126.345px 92.6193px;"></path></g></g><path d="M121.68,70.55c-4.7,3.66-7.86,11.4-7,17.3.4,3,1.74,4.9,3.57,5.63l.1,0c1.78.66,4,.18,6.31-1.6,4.71-3.66,7.86-11.4,7-17.3-.41-2.94-1.72-4.88-3.53-5.61S124,68.72,121.68,70.55Z" style="fill: #FFFFFF; transform-origin: 123.17px 81.2031px;" id="elxddhe5wwqr" class="animable"></path><g id="elza8us59wmjd"><g style="opacity: 0.2; transform-origin: 123.17px 81.2031px;" class="animable" id="elmtvbt8h1tm"><path d="M121.68,70.55c-4.7,3.66-7.86,11.4-7,17.3.4,3,1.74,4.9,3.57,5.63l.1,0c1.78.66,4,.18,6.31-1.6,4.71-3.66,7.86-11.4,7-17.3-.41-2.94-1.72-4.88-3.53-5.61S124,68.72,121.68,70.55Z" id="elubuqxzp4a9" class="animable" style="transform-origin: 123.17px 81.2031px;"></path></g></g><path d="M105.33,47s2,10.41-4.11,25.32a65,65,0,0,1-3.79,7.78c-5.35,9.27-11,13.2-11,13.2,7.15-2,14.92-3.62,22.8-2.36a87.29,87.29,0,0,1,9.12,2h0c1.66.67,3.74.19,5.86-1.46a16,16,0,0,0,3.68-4.2,20,20,0,0,0,1.72-3.35,18.37,18.37,0,0,0,1.41-9.19c-.36-2.65-1.52-4.46-3.17-5.13h0a89,89,0,0,1-7.92-5C113.48,60,109.05,53.42,105.33,47Z" style="fill: #FFFFFF; transform-origin: 108.774px 70.15px;" id="elck5xms7co2j" class="animable"></path><g id="elowthk0d2htp"><g style="opacity: 0.6; transform-origin: 108.774px 70.15px;" class="animable" id="eld6qysshwy1g"><path d="M105.33,47s2,10.41-4.11,25.32a65,65,0,0,1-3.79,7.78c-5.35,9.27-11,13.2-11,13.2,7.15-2,14.92-3.62,22.8-2.36a87.29,87.29,0,0,1,9.12,2h0c1.66.67,3.74.19,5.86-1.46a16,16,0,0,0,3.68-4.2,20,20,0,0,0,1.72-3.35,18.37,18.37,0,0,0,1.41-9.19c-.36-2.65-1.52-4.46-3.17-5.13h0a89,89,0,0,1-7.92-5C113.48,60,109.05,53.42,105.33,47Z" style="fill: rgb(255, 255, 255); transform-origin: 108.774px 70.15px;" id="ele5ady9b4xna" class="animable"></path></g></g><g id="ell4oo62avttr"><g style="opacity: 0.1; transform-origin: 107.16px 86.5755px;" class="animable" id="elbbknar03zm9"><path d="M97.43,80.09c-5.35,9.27-11,13.2-11,13.2,7.15-2,14.92-3.62,22.8-2.36a87.29,87.29,0,0,1,9.12,2h0c1.66.67,3.74.19,5.86-1.46a16,16,0,0,0,3.68-4.2C120.74,83.8,108.44,78.72,97.43,80.09Z" id="el4ri295637le" class="animable" style="transform-origin: 107.16px 86.5755px;"></path></g></g><path d="M83.82,41.23c-4.91,3.81-9.1,9.49-12.11,15.85h0C67.87,65.24,66,74.51,67.06,82.4c1.94,14,12.58,18.37,23.77,9.67a37.74,37.74,0,0,0,7-7.32,53,53,0,0,0,9.76-24.64c.14-1.21.23-2.41.26-3.59,0-.49,0-1,0-1.47h0c0-.69,0-1.38-.08-2s-.12-1.4-.22-2.09C105.65,36.86,95,32.53,83.82,41.23Z" style="fill: #FFFFFF; transform-origin: 87.3082px 66.6465px;" id="el9dwgiff7rqe" class="animable"></path><g id="el9bp1is29mya"><g style="opacity: 0.15; transform-origin: 87.3082px 66.6465px;" class="animable" id="elz9ef41vv9pf"><path d="M83.82,41.23c-4.91,3.81-9.1,9.49-12.11,15.85h0C67.87,65.24,66,74.51,67.06,82.4c1.94,14,12.58,18.37,23.77,9.67a37.74,37.74,0,0,0,7-7.32,53,53,0,0,0,9.76-24.64c.14-1.21.23-2.41.26-3.59,0-.49,0-1,0-1.47h0c0-.69,0-1.38-.08-2s-.12-1.4-.22-2.09C105.65,36.86,95,32.53,83.82,41.23Z" style="fill: rgb(255, 255, 255); transform-origin: 87.3082px 66.6465px;" id="elhlwspcexb8e" class="animable"></path></g></g><g id="elf26es6rt6wf"><g style="opacity: 0.1; transform-origin: 82.2982px 76.8197px;" class="animable" id="elyrokoxr39n"><path d="M71.71,57.09C67.87,65.24,66,74.51,67.06,82.4c1.94,14,12.58,18.37,23.77,9.67a37.74,37.74,0,0,0,7-7.32h0c-2,.47-5.86-.28-5.23-2.46a33.9,33.9,0,0,1-6.24,6.49c-3.22,2.5-6.37,3.8-9.12,3.76a7.25,7.25,0,0,1-5.85-3,17,17,0,0,1-3-8c-.92-6.7.57-14.69,3.67-21.94C72.1,59.52,71.12,59.32,71.71,57.09Z" id="eltmdqppc9p9m" class="animable" style="transform-origin: 82.2982px 76.8197px;"></path></g></g><path d="M84.13,42.91c-4.94,3.84-9.18,9.91-12,16.61-3.1,7.25-4.59,15.24-3.67,21.94a17,17,0,0,0,3,8,7.25,7.25,0,0,0,5.85,3c2.75,0,5.9-1.26,9.12-3.76a33.9,33.9,0,0,0,6.24-6.49c.72-1,1.41-2,2.06-3a49.68,49.68,0,0,0,3.09-5.72c.19-.41.37-.82.55-1.23.29-.68.58-1.37.84-2.07A49.57,49.57,0,0,0,101.35,63s0-.06,0-.09a45.63,45.63,0,0,0,.78-4.8c.11-1.14.18-2.26.2-3.36,0-.47,0-.92,0-1.38s0-1.09-.09-1.63-.1-1-.17-1.54a17,17,0,0,0-3-8C95.79,37.92,90.19,38.2,84.13,42.91Z" style="fill: #FFFFFF; transform-origin: 85.2604px 65.8168px;" id="elh6bgd6fmuyi" class="animable"></path><g id="elhy5bgkwe1iv"><g style="opacity: 0.4; transform-origin: 85.2604px 65.8168px;" class="animable" id="el3fiid07koaf"><path d="M84.13,42.91c-4.94,3.84-9.18,9.91-12,16.61-3.1,7.25-4.59,15.24-3.67,21.94a17,17,0,0,0,3,8,7.25,7.25,0,0,0,5.85,3c2.75,0,5.9-1.26,9.12-3.76a33.9,33.9,0,0,0,6.24-6.49c.72-1,1.41-2,2.06-3a49.68,49.68,0,0,0,3.09-5.72c.19-.41.37-.82.55-1.23.29-.68.58-1.37.84-2.07A49.57,49.57,0,0,0,101.35,63s0-.06,0-.09a45.63,45.63,0,0,0,.78-4.8c.11-1.14.18-2.26.2-3.36,0-.47,0-.92,0-1.38s0-1.09-.09-1.63-.1-1-.17-1.54a17,17,0,0,0-3-8C95.79,37.92,90.19,38.2,84.13,42.91Z" id="el89hhw5kzdwf" class="animable" style="transform-origin: 85.2604px 65.8168px;"></path></g></g><path d="M89.73,58.91,83.79,73.12c3.28,1.48,7.32,3.25,10.23,7.19.23-.33.45-.67.67-1a49.68,49.68,0,0,0,3.09-5.72c.18-.41.37-.82.54-1.23.3-.68.59-1.37.85-2.07A49.57,49.57,0,0,0,101.35,63s0-.06,0-.09c.07-.35.15-.71.22-1.06C96.66,62.62,89.73,58.91,89.73,58.91Z" style="fill: rgb(55, 71, 79); transform-origin: 92.68px 69.61px;" id="elgcor516l0ud" class="animable"></path><path d="M83,72.43c1,1.3,2.67,1.26,4.44-.11l0,0a12.23,12.23,0,0,0,4.17-10.23V62a4.74,4.74,0,0,0-.85-2.26c-1-1.31-2.68-1.27-4.44.11l-.06,0A12.22,12.22,0,0,0,82.12,70.1v.07A4.78,4.78,0,0,0,83,72.43Z" style="fill: #FFFFFF; transform-origin: 86.863px 66.0813px;" id="elji31t6b6p8" class="animable"></path></g></g><path d="M111.58,91.33s.47.82.51.89l.48.86c.27.49.54,1,.79,1.49a22.42,22.42,0,0,1,1,2.22,10.3,10.3,0,0,1,.49,1.45,4.76,4.76,0,0,1,.1.52c0,.19,0,.37.05.56a1.85,1.85,0,0,1,0,.23,2.45,2.45,0,0,1-.08.37c-.06.27-.12.53-.19.79-.14.52-.3,1-.48,1.55l-.27.72a2.36,2.36,0,0,1-.12.28,1,1,0,0,0-.13.18c-.11.19-.2.39-.31.58a7.7,7.7,0,0,1-.78,1.09,3.11,3.11,0,0,1-.92.78,1.44,1.44,0,0,1-1.18.08c-.18-.07-.37-.19-.54-.11a.52.52,0,0,0-.17.16,3.2,3.2,0,0,1-1.43,1.25c-.89.3-1.24-.12-2.07-.58-.73,1-2.45,1.62-3.25.94-.18.41-1.1.9-1.47,1.16s-4.06-3.5-5.13-4.8a6.39,6.39,0,0,1-.59-.89,4.91,4.91,0,0,1,.44-1.2c.09-.12.25-.14.37-.22a.91.91,0,0,0,.16-.11l.29-.2.76-.53,1-.67,1.11-.78,1.24-.87,1.32-.92,1.36-1,1.37-1,1.32-.92,1.24-.88,1.13-.78,1-.68.77-.54.53-.37Z" style="fill: rgb(255, 189, 167); transform-origin: 105.447px 100.066px;" id="el20yqfxrx1gy" class="animable"></path><path d="M190.13,110.14l17.68,5.49c3,1.05,14.5,8,10.49,25.3-1.32,5.71-3.13,13.72-4.76,21.73-1.25,6.12,3.33,17.89,7,36.65,0,0-15.16,12.05-45.28,8.65-23-2.6-25.48-11.2-25.48-11.2.64-21.39,2.53-29.66,2.49-37.79,0,0-3.35-4.1-3.5-11.37-.15-7.62,1.86-11.72,8.7-20.37C164,119,168,114.7,168,114.7Z" style="fill: rgb(250, 250, 250); transform-origin: 184.651px 159.352px;" id="elqm0y0p8am8e" class="animable"></path><path d="M175.64,112.28c-.82.3-8,2.17-8,2.17-5.47,5.47-15.27,17.9-17.54,22.23-3.17,6-3.07,13.14-3.24,23-.14,8.54-2.43,33.53-2.43,46,.92,3.31,10.82,7.14,10.82,7.14.4,4.34-2.06-43.44.26-66.17,3-20,18-30.29,21.29-32.59Z" style="fill: #FFFFFF; transform-origin: 160.615px 162.688px;" id="eltkom5k17a6" class="animable"></path><path d="M197.51,110.6l-.34,3.55c-7.94,20.65-6.37,32.35-6.47,46-.21,28.57,3.29,60.16,3.29,60.16s21.94,2,30-8.91c0,0-4.73-17.44-7.44-34-1.6-9.82,4.93-33.83,3.24-48-.71-5.94-3-11.88-7.41-13.28-3.68-1.15-6.88-2.09-6.88-2.09Z" style="fill: #FFFFFF; transform-origin: 207.313px 165.527px;" id="el3g43bb77syv" class="animable"></path><g id="freepik--Head--inject-35" class="animable" style="transform-origin: 184.357px 94.37px;"><path d="M162.72,82.64,161,82c-7.53-4.59-6.59-14.69-4.42-19.86,4.85-11.54,17.81-15.25,25.71-15.25,15,0,22.37,5.93,23.49,13.75,2-.06,4.31,1,6,4.18,1.47,2.73,3.76,10.6-.74,20.31-4,8.63-12.46,13-13,18.53Z" style="fill: rgb(55, 71, 79); transform-origin: 184.357px 75.275px;" id="ell6xdv4tv1qg" class="animable"></path><path d="M202.13,97.58c2.69.54,4.85-.76,6.51-2.53,3.68-3.93,4.08-8,2.43-10.71-1.35-2.25-4.75-3.72-7.17-2.25-2.59,1.57-2.69,2.88-3.69,4.68s-4.74,1.58-5.52-5.76c-.73-6.84-1.68-13.12-5-16.25-4.92-4.69-9.36-2.09-13,.88-2-3.22-6.27-5.44-8.94-3.61-3.13,2.15-5.23,5.45-6.6,18.39-1.4,13.2,1.57,21.49,4.57,23.76,2.27,1.72,4.83,2.52,9.79,2.82l-.64,8.17s-8.92,15.36-9.08,26.68c0,0,4.51-6.94,17.39-17,8.58-6.72,13.94-10.68,13.94-10.68l1.75-18.7A4.26,4.26,0,0,0,202.13,97.58Z" style="fill: rgb(255, 189, 167); transform-origin: 186.395px 101.61px;" id="el5su4ldcbqsq" class="animable"></path><path d="M164.08,74.22l5.09-1.17a2.51,2.51,0,0,0-3-2A2.75,2.75,0,0,0,164.08,74.22Z" style="fill: rgb(38, 50, 56); transform-origin: 166.603px 72.6066px;" id="elxscy8zucrfs" class="animable"></path><path d="M181.93,74.53l5.19,2a2.67,2.67,0,0,0-1.47-3.6A2.92,2.92,0,0,0,181.93,74.53Z" style="fill: rgb(38, 50, 56); transform-origin: 184.645px 74.6364px;" id="elwdxv4yxpuul" class="animable"></path><path d="M183.27,92.14l-8.4,2.22a4.36,4.36,0,0,0,5.71,3C182.88,96.62,183.8,94.5,183.27,92.14Z" style="fill: rgb(177, 102, 104); transform-origin: 179.143px 94.8813px;" id="elae2f255viru" class="animable"></path><path d="M178.19,97.44A4.56,4.56,0,0,1,183,93.63c.14,0,.28.05.41.07a3.84,3.84,0,0,1-2.81,3.62A5,5,0,0,1,178.19,97.44Z" style="fill: rgb(255, 168, 167); transform-origin: 180.8px 95.5766px;" id="el2qxrkfc3nrr" class="animable"></path><polygon points="176.52 77.32 173.57 90.05 166.88 86.55 176.52 77.32" style="fill: rgb(240, 153, 122); transform-origin: 171.7px 83.685px;" id="el3k1r0w3r6m1" class="animable"></polygon><circle cx="183.07" cy="80.89" r="1.9" style="fill: rgb(38, 50, 56); transform-origin: 183.07px 80.89px;" id="el4l44zi9tyr7" class="animable"></circle><path d="M169.22,80a1.9,1.9,0,1,1-1.77-2A1.9,1.9,0,0,1,169.22,80Z" style="fill: rgb(38, 50, 56); transform-origin: 167.323px 79.8957px;" id="el1f1q9bf16rk" class="animable"></path><path d="M175.56,107c5.34.62,12.37-1.67,14.82-3.41,1.45-1,3.39-3.71,5.33-6.93,0,0-1.63,7.68-5.25,9.76-5.5,3.17-15.14,3.46-15.14,3.46Z" style="fill: rgb(240, 153, 122); transform-origin: 185.515px 103.27px;" id="el4xf8jvgqsu8" class="animable"></path></g><g id="freepik--arm--inject-35" class="animable" style="transform-origin: 230.143px 171.469px;"><path d="M224.7,226.07c4,1.13,9-3.79,10.4-5.5s-.4-5.78-1.24-9.21,0-9.22-4.24-7.6S216.46,216.84,224.7,226.07Z" style="fill: rgb(240, 153, 122); transform-origin: 228.472px 214.858px;" id="eleomskhq4efw" class="animable"></path><path d="M213.1,116.83c11.63,2.43,12.78,2.08,18.27,13.12,6.4,12.86,15.46,33.86,17.75,38.75s4.49,8.48-1.66,16c-5.49,6.73-20.78,26.11-23.18,28.88-2.12,2.46-.11,11.38,7.2,10.34,0,0-4.06,4.24-9.15,2.67-2.56-.79-6.78-2.78-10.58-10.77-2.4-5-.39-9,3.26-14.62,4.35-6.7,13.77-25.4,13.77-25.4l-17.16-33.06S204.6,125.7,213.1,116.83Z" style="fill: rgb(255, 189, 167); transform-origin: 230.177px 171.884px;" id="elshondgpc1ef" class="animable"></path><path d="M212.4,116c-2.82,2.82-7.3,13.35-1.07,28.58l16.87,31.21-5.63,12a25.05,25.05,0,0,0,6.68,7.72,10.29,10.29,0,0,0,8.11,1.89s9-10,12.18-14.36,3.75-5.65-.32-15.49c-3.91-9.48-16.37-38.38-19-42.8S222.63,118.08,212.4,116Z" style="fill: #FFFFFF; transform-origin: 230.143px 156.79px;" id="el3d2vbs09xoq" class="animable"></path><g id="el1srgtvcmjcy"><path d="M212.4,116c-2.82,2.82-7.3,13.35-1.07,28.58l16.87,31.21-5.63,12a25.05,25.05,0,0,0,6.68,7.72,10.29,10.29,0,0,0,8.11,1.89s9-10,12.18-14.36,3.75-5.65-.32-15.49c-3.91-9.48-16.37-38.38-19-42.8S222.63,118.08,212.4,116Z" style="opacity: 0.2; transform-origin: 230.143px 156.79px;" class="animable" id="elsnknibw2gcp"></path></g></g></g></g></g><g id="freepik--speech-bubble--inject-35" class="animable animator-hidden" style="transform-origin: 309.285px 99.7484px;"><g id="freepik--speech-bubble--inject-35" class="animable" style="transform-origin: 309.285px 99.7484px;"><g id="freepik--Bubble--inject-35" class="animable" style="transform-origin: 309.285px 99.7484px;"><path d="M328.44,52.19C322,48.5,313,49.07,303.17,54.76c-19.83,11.45-35.9,39.29-35.9,62.19,0,11.44,4,19.47,10.5,23.22,2.7,1.57,9.56,5.5,12.27,7.06,6.49,3.74,15.45,3.2,25.36-2.52,19.83-11.45,35.9-39.29,35.9-62.19,0-11.41-4-19.44-10.46-23.2C338.13,57.74,331.19,53.75,328.44,52.19Z" style="fill: #FFFFFF; transform-origin: 309.285px 99.7346px;" id="elath7s2uv2qf" class="animable"></path><g id="elny0b7ehgaua"><path d="M268.59,105.05a57.37,57.37,0,0,0-1.32,11.9c0,11.44,4,19.47,10.5,23.22,2.7,1.57,9.56,5.5,12.27,7.06,6.49,3.74,15.45,3.2,25.36-2.52a57.54,57.54,0,0,0,9.62-7.08Z" style="opacity: 0.15; transform-origin: 296.145px 127.33px;" class="animable" id="el8koileun1ww"></path></g><path d="M340.8,117.88c6.49-11.24,10.5-23.92,10.5-35.36,0-22.9-16.07-32.18-35.9-20.73S279.49,101.08,279.49,124s16.08,32.18,35.91,20.73a62.3,62.3,0,0,0,14-11.37L344.07,136a2.41,2.41,0,0,0,2.67-3.27Z" style="fill: #FFFFFF; transform-origin: 315.395px 103.262px;" id="elmfqbs0v4rx7" class="animable"></path><g id="el3hb87gfq3rq"><path d="M340.8,117.88c6.49-11.24,10.5-23.92,10.5-35.36,0-22.9-16.07-32.18-35.9-20.73S279.49,101.08,279.49,124s16.08,32.18,35.91,20.73a62.3,62.3,0,0,0,14-11.37L344.07,136a2.41,2.41,0,0,0,2.67-3.27Z" style="fill: rgb(255, 255, 255); opacity: 0.35; transform-origin: 315.395px 103.262px;" class="animable" id="el76lc58mvvxa"></path></g></g><g id="freepik--Check--inject-35" class="animable" style="transform-origin: 316.148px 98.9027px;"><path d="M314.11,126.3a3.16,3.16,0,0,1-.55.14,4.24,4.24,0,0,1-3.83-1.3L296.29,110.6a4.23,4.23,0,0,1,6.21-5.74l9,9.74,17.4-40.66a4.23,4.23,0,1,1,7.78,3.32l-20,46.67A4.24,4.24,0,0,1,314.11,126.3Z" style="fill: rgb(250, 250, 250); transform-origin: 316.148px 98.9027px;" id="elks1p9acvo3" class="animable"></path></g></g></g><defs>     <filter id="active" height="200%">         <feMorphology in="SourceAlpha" result="DILATED" operator="dilate" radius="2"></feMorphology>                <feFlood flood-color="#32DFEC" flood-opacity="1" result="PINK"></feFlood>        <feComposite in="PINK" in2="DILATED" operator="in" result="OUTLINE"></feComposite>        <feMerge>            <feMergeNode in="OUTLINE"></feMergeNode>            <feMergeNode in="SourceGraphic"></feMergeNode>        </feMerge>    </filter>    <filter id="hover" height="200%">        <feMorphology in="SourceAlpha" result="DILATED" operator="dilate" radius="2"></feMorphology>                <feFlood flood-color="#ff0000" flood-opacity="0.5" result="PINK"></feFlood>        <feComposite in="PINK" in2="DILATED" operator="in" result="OUTLINE"></feComposite>        <feMerge>            <feMergeNode in="OUTLINE"></feMergeNode>            <feMergeNode in="SourceGraphic"></feMergeNode>        </feMerge>            <feColorMatrix type="matrix" values="0   0   0   0   0                0   1   0   0   0                0   0   0   0   0                0   0   0   1   0 "></feColorMatrix>    </filter></defs></svg>